<svg xmlns="http://www.w3.org/2000/svg" viewBox="0 0 750 500"><g id="freepik--background-complete--inject-2"><path d="M244.2,148.3H117.56V61.67H244.2Zm-125.64-1H243.2V62.67H118.56Z" style="fill:#ebebeb"></path><path d="M127.46,67.25a2.52,2.52,0,1,1-2.52-2.52A2.52,2.52,0,0,1,127.46,67.25Z" style="fill:#a6a6a6"></path><path d="M137.75,67.25a2.52,2.52,0,1,1-2.52-2.52A2.52,2.52,0,0,1,137.75,67.25Z" style="fill:#ebebeb"></path><path d="M148.05,67.25a2.53,2.53,0,1,1-2.52-2.52A2.52,2.52,0,0,1,148.05,67.25Z" style="fill:#3B82F6"></path><rect x="118.06" y="71.68" width="125.64" height="1" style="fill:#ebebeb"></rect><polygon points="658.51 375.21 657.51 375.21 657.51 249.39 684.24 212.91 684.24 144.73 685.24 144.73 685.24 213.23 658.51 249.72 658.51 375.21" style="fill:#ebebeb"></polygon><path d="M684.74,145.27a2.88,2.88,0,1,1,2.88-2.87A2.87,2.87,0,0,1,684.74,145.27Zm0-4.75a1.88,1.88,0,1,0,1.88,1.88A1.88,1.88,0,0,0,684.74,140.52Z" style="fill:#ebebeb"></path><polygon points="665.4 375.21 664.4 375.21 664.4 253.8 664.49 253.66 691.13 217.31 691.13 169.73 692.13 169.73 692.13 217.64 665.4 254.12 665.4 375.21" style="fill:#ebebeb"></polygon><path d="M691.63,170.27a2.88,2.88,0,1,1,2.87-2.87A2.88,2.88,0,0,1,691.63,170.27Zm0-4.75a1.88,1.88,0,1,0,1.87,1.88A1.88,1.88,0,0,0,691.63,165.52Z" style="fill:#ebebeb"></path><rect x="650.88" y="208.8" width="1" height="166.41" style="fill:#ebebeb"></rect><path d="M651.38,209.3a2.88,2.88,0,1,1,2.87-2.87A2.88,2.88,0,0,1,651.38,209.3Zm0-4.75a1.88,1.88,0,1,0,1.87,1.88A1.88,1.88,0,0,0,651.38,204.55Z" style="fill:#ebebeb"></path><polygon points="645.49 375.21 644.49 375.21 644.49 290.76 626.35 256.53 626.35 195.05 627.35 195.05 627.35 256.29 645.49 290.52 645.49 375.21" style="fill:#ebebeb"></polygon><path d="M626.84,195.55a2.88,2.88,0,1,1,2.88-2.88A2.88,2.88,0,0,1,626.84,195.55Zm0-4.75a1.88,1.88,0,1,0,1.88,1.87A1.87,1.87,0,0,0,626.84,190.8Z" style="fill:#ebebeb"></path><polygon points="639.14 375.21 638.14 375.21 638.14 294.43 616.75 256.59 616.75 216.04 617.75 216.04 617.75 256.32 639.14 294.17 639.14 375.21" style="fill:#ebebeb"></polygon><path d="M617.25,216.54a2.88,2.88,0,1,1,2.87-2.87A2.88,2.88,0,0,1,617.25,216.54Zm0-4.75a1.88,1.88,0,1,0,1.87,1.88A1.88,1.88,0,0,0,617.25,211.79Z" style="fill:#ebebeb"></path><polygon points="96.1 375.21 95.1 375.21 95.1 309.71 68.37 273.23 68.37 234.73 69.37 234.73 69.37 272.9 96.1 309.39 96.1 375.21" style="fill:#ebebeb"></polygon><path d="M68.87,235.27a2.88,2.88,0,1,1,2.87-2.87A2.87,2.87,0,0,1,68.87,235.27Zm0-4.75a1.88,1.88,0,1,0,1.87,1.88A1.88,1.88,0,0,0,68.87,230.52Z" style="fill:#ebebeb"></path><polygon points="89.21 375.21 88.21 375.21 88.21 314.12 61.48 277.64 61.48 259.73 62.48 259.73 62.48 277.31 89.21 313.8 89.21 375.21" style="fill:#ebebeb"></polygon><path d="M62,260.27a2.88,2.88,0,1,1,2.88-2.87A2.88,2.88,0,0,1,62,260.27Zm0-4.75a1.88,1.88,0,1,0,1.88,1.88A1.88,1.88,0,0,0,62,255.52Z" style="fill:#ebebeb"></path><rect x="101.73" y="268.8" width="1" height="106.41" style="fill:#ebebeb"></rect><path d="M102.23,269.3a2.88,2.88,0,1,1,2.88-2.87A2.88,2.88,0,0,1,102.23,269.3Zm0-4.75a1.88,1.88,0,1,0,1.88,1.88A1.88,1.88,0,0,0,102.23,264.55Z" style="fill:#ebebeb"></path><polygon points="109.12 375.21 108.12 375.21 108.12 320.52 108.17 320.4 126.26 286.29 126.26 225.05 127.26 225.05 127.26 286.53 127.21 286.64 109.12 320.76 109.12 375.21" style="fill:#ebebeb"></polygon><path d="M126.76,225.55a2.88,2.88,0,1,1,2.88-2.88A2.88,2.88,0,0,1,126.76,225.55Zm0-4.75a1.88,1.88,0,1,0,1.88,1.87A1.87,1.87,0,0,0,126.76,220.8Z" style="fill:#ebebeb"></path><polygon points="115.47 375.21 114.47 375.21 114.47 324.17 114.53 324.05 135.86 286.32 135.86 246.04 136.86 246.04 136.86 286.59 136.79 286.7 115.47 324.43 115.47 375.21" style="fill:#ebebeb"></polygon><path d="M136.36,246.54a2.88,2.88,0,1,1,2.87-2.87A2.88,2.88,0,0,1,136.36,246.54Zm0-4.75a1.88,1.88,0,1,0,1.87,1.88A1.88,1.88,0,0,0,136.36,241.79Z" style="fill:#ebebeb"></path><path d="M686,127.75l7-11.25-3.44-2.13a3.13,3.13,0,0,1-1.46-3q.08-1,.06-2a3.13,3.13,0,0,1,1.64-2.85l3.57-1.92L687,93l-3.57,1.92a3.15,3.15,0,0,1-3.29-.22c-.54-.37-1.1-.72-1.68-1a3.13,3.13,0,0,1-1.66-2.85l.13-4.06-13.23-.41-.13,4.07a3.14,3.14,0,0,1-1.84,2.74c-.3.14-.59.28-.87.44s-.57.31-.85.48a3.14,3.14,0,0,1-3.29,0l-3.47-2.15-7,11.25,3.45,2.15a3.12,3.12,0,0,1,1.46,3,18.52,18.52,0,0,0-.06,2,3.16,3.16,0,0,1-1.65,2.86L645.94,115l6.26,11.67,3.57-1.91a3.15,3.15,0,0,1,3.29.21,18.07,18.07,0,0,0,1.68,1,3.13,3.13,0,0,1,1.66,2.85l-.12,4.06,13.23.41.13-4.06a3.12,3.12,0,0,1,1.84-2.73l.87-.44.85-.49a3.16,3.16,0,0,1,3.3,0Zm-11.2-8.35a10.85,10.85,0,1,1,4.44-14.69A10.85,10.85,0,0,1,674.75,119.4Z" style="fill:#ebebeb"></path><path d="M77.18,227.76l8-4.64-1.42-2.46a2.19,2.19,0,0,1,.08-2.31q.38-.58.69-1.2a2.21,2.21,0,0,1,2-1.22h2.84v-9.28H86.53a2.21,2.21,0,0,1-2-1.22q-.31-.62-.69-1.2a2.19,2.19,0,0,1-.08-2.31l1.42-2.46-8-4.64-1.42,2.47a2.17,2.17,0,0,1-2,1.08H72.35a2.19,2.19,0,0,1-2-1.07l-1.43-2.48-8,4.64,1.42,2.47a2.19,2.19,0,0,1-.08,2.31,12.71,12.71,0,0,0-.69,1.19,2.21,2.21,0,0,1-2,1.22H56.7v9.28h2.84a2.21,2.21,0,0,1,2,1.22,12.71,12.71,0,0,0,.69,1.19,2.21,2.21,0,0,1,.08,2.32l-1.42,2.46,8,4.64,1.43-2.47a2.2,2.2,0,0,1,2-1.08c.22,0,.45,0,.68,0s.46,0,.69,0a2.21,2.21,0,0,1,2,1.08ZM73,218.89a7.6,7.6,0,1,1,7.61-7.6A7.59,7.59,0,0,1,73,218.89Z" style="fill:#ebebeb"></path><path d="M645.08,135.89l-4.63-8L638,129.28a2.21,2.21,0,0,1-2.32-.08,11.7,11.7,0,0,0-1.2-.69,2.21,2.21,0,0,1-1.22-2v-2.84H624v2.84a2.21,2.21,0,0,1-1.22,2,13,13,0,0,0-1.21.69,2.19,2.19,0,0,1-2.31.08l-2.46-1.42-4.63,8,2.47,1.42a2.23,2.23,0,0,1,1.08,2.05c0,.23,0,.46,0,.68s0,.46,0,.69a2.19,2.19,0,0,1-1.08,2l-2.47,1.43,4.63,8,2.47-1.42a2.19,2.19,0,0,1,2.31.08q.59.38,1.2.69a2.21,2.21,0,0,1,1.22,2v2.84h9.27v-2.84a2.21,2.21,0,0,1,1.22-2q.62-.32,1.2-.69a2.19,2.19,0,0,1,2.31-.08l2.47,1.42,4.63-8-2.47-1.42a2.2,2.2,0,0,1-1.07-2c0-.23,0-.46,0-.69s0-.45,0-.68a2.22,2.22,0,0,1,1.08-2.05ZM636.21,140a7.6,7.6,0,1,1-7.59-7.6A7.59,7.59,0,0,1,636.21,140Z" style="fill:#ebebeb"></path></g><g id="freepik--Plant--inject-2"><path d="M98.5,299.07c-6.39-13.13-17.57-19.87-30.17-16.14s-14.55,21.29-5.15,25.73S82,300.14,87,297.48,98.5,299.07,98.5,299.07Z" style="fill:#3B82F6"></path><path d="M104.68,334c0-1.58-.09-3.17-.15-4.75q-.16-4.74-.34-9.48C104,314,103.36,308.34,101,303a26,26,0,0,0-10.13-11.68A20.92,20.92,0,0,0,85.5,289a12.4,12.4,0,0,0-6.22-3.42,25.35,25.35,0,0,0-8.86-.22.09.09,0,0,0,0,.17,21.17,21.17,0,0,1,8.38.59,17.82,17.82,0,0,1,3.38,1.32,15.7,15.7,0,0,1,2,1.24,17.11,17.11,0,0,0-10.37.95,8.29,8.29,0,0,0-2.1-.18,12.57,12.57,0,0,0-2.73.39,20.6,20.6,0,0,0-5.18,2.27c-.09.05,0,.19.09.14a19.54,19.54,0,0,1,5.05-1.91,17.72,17.72,0,0,1,2.6-.38A14,14,0,0,1,73,290a16.74,16.74,0,0,0-8.14,8.12c0,.1.1.18.14.08a15.33,15.33,0,0,1,10.38-8.32c.28-.07.56-.11.85-.16A11,11,0,0,0,76,291c-.08.64-.19,1.27-.32,1.9a32.1,32.1,0,0,1-1,3.85,30.92,30.92,0,0,1-1.53,3.72,17.6,17.6,0,0,1-2.13,3.6c-.08.09.07.2.13.1.76-1.19,1.64-2.28,2.33-3.51A26,26,0,0,0,75.21,297a24.45,24.45,0,0,0,1.12-3.93c.14-.71.25-1.42.33-2.14a4.74,4.74,0,0,0,.08-1.3,17.23,17.23,0,0,1,4.48-.1c-.56,3.14-1.16,6.4-2.92,9.12-.06.09.1.18.15.08a36.92,36.92,0,0,0,2.16-4.48,16.63,16.63,0,0,0,1.08-4.66,20.5,20.5,0,0,1,7.4,2.48,24.45,24.45,0,0,1,9.85,10.77,40.76,40.76,0,0,1,3.65,15.44c.42,6.72.51,13.47,1.18,20.16,0,.44.73.59.82.09A24,24,0,0,0,104.68,334Z" style="fill:#263238"></path><path d="M89.92,290.28a7.46,7.46,0,0,0-1.46-1.34c-.52-.43-1.06-.85-1.62-1.23A11.89,11.89,0,0,0,83.21,286c-.1,0-.14.14,0,.16A9.45,9.45,0,0,1,86.75,288c.54.39,1,.81,1.55,1.25a8.7,8.7,0,0,0,1.47,1.24A.12.12,0,0,0,89.92,290.28Z" style="fill:#263238"></path><path d="M69.53,295a37.93,37.93,0,0,0-2.93,3.88,22.73,22.73,0,0,0-2.18,4.32c0,.05,0,.07.07,0a51.07,51.07,0,0,1,5.16-8.11C69.72,295.08,69.59,295,69.53,295Z" style="fill:#263238"></path><path d="M83.27,293.74a9.48,9.48,0,0,1-.72,2.38,15.72,15.72,0,0,1-1.22,2.1s0,.09.08.06a8.5,8.5,0,0,0,2-4.5C83.45,293.68,83.29,293.64,83.27,293.74Z" style="fill:#263238"></path><path d="M103.79,299.4s9-11.37,26.51-7.34c16.59,3.83,24.25,34.26,7.48,37.9s-13.81-24.52-19.92-29.3C113.37,297.16,106.92,297.91,103.79,299.4Z" style="fill:#3B82F6"></path><path d="M143.78,308.68a33,33,0,0,0-3.6-2.76,15.25,15.25,0,0,0-3.83-1.91,23,23,0,0,0-2.28-2.93,22.51,22.51,0,0,0-5.27-4.2l.52,0a25.63,25.63,0,0,1,2.77,0,15.43,15.43,0,0,1,5.39,1.34c.1,0,.17-.11.07-.15a24.71,24.71,0,0,0-5.38-1.62,15.57,15.57,0,0,0-2.73-.24c-.49,0-1,0-1.46.09l-.28,0a23.6,23.6,0,0,0-5-1.85l.49-.13a25,25,0,0,1,2.59-.43A20.73,20.73,0,0,1,131,294c.11,0,.14-.15,0-.16a33.27,33.27,0,0,0-5.28-.21,21.22,21.22,0,0,0-4.39.57,24.19,24.19,0,0,0-3.18-.37c-6.09-.25-12.73,2-16.48,7s-4.48,11.69-5.14,17.74a134.46,134.46,0,0,0-.67,25.37c0,.5.74.41.76-.06.23-7.18.48-14.35,1.17-21.5.31-3.32.67-6.64,1.22-9.92a29.36,29.36,0,0,1,2.4-8.16,14.86,14.86,0,0,1,5.9-6.34,20,20,0,0,1,8.34-2.57,22.49,22.49,0,0,1,7.84.74,5,5,0,0,0,0,1.54,9.5,9.5,0,0,0,.38,1.91,10.51,10.51,0,0,0,.73,1.69c.33.6.73,1.14,1.1,1.71,0,.09.2,0,.13-.1a7.87,7.87,0,0,1-1.35-3.44,13.11,13.11,0,0,1-.21-1.78c0-.45,0-.9,0-1.35a23.14,23.14,0,0,1,7.63,4c.42.34.83.7,1.23,1.07a8.16,8.16,0,0,0-1.48,1.81A17.5,17.5,0,0,0,130,306a23.58,23.58,0,0,0-1.62,6.07.09.09,0,0,0,.17,0,17.62,17.62,0,0,1,2-5.75,24.53,24.53,0,0,1,1.55-2.56c.3-.42.6-.84.92-1.24.17-.21.36-.43.52-.67a24.21,24.21,0,0,1,4.95,7h0a11.84,11.84,0,0,0-2.05,2.94,26.48,26.48,0,0,0-1.63,3.5,58,58,0,0,0-2.09,7.11.09.09,0,0,0,.17,0,30.29,30.29,0,0,1,2.47-7c.52-1.09,1.08-2.17,1.66-3.23a31.93,31.93,0,0,0,1.64-3.05,22.43,22.43,0,0,1,2,8.08c0,.11.17.1.17,0a28.23,28.23,0,0,0-3.92-12.41c1.06.45,2.13.89,3.16,1.44a18.1,18.1,0,0,1,3.63,2.55C143.75,308.88,143.86,308.75,143.78,308.68Z" style="fill:#263238"></path><path d="M131,309.32c-.53,1.73-1.19,3.4-1.66,5.14a19.85,19.85,0,0,0-.77,5.13,0,0,0,0,0,.08,0,50,50,0,0,1,2.5-10.23C131.18,309.26,131,309.21,131,309.32Z" style="fill:#263238"></path><path d="M142,305.05a9.74,9.74,0,0,0-2.32-1.66,16.92,16.92,0,0,0-2.67-.94c-.1,0-.14.14,0,.16a10.48,10.48,0,0,1,2.57,1.06,18.74,18.74,0,0,1,2.38,1.46C142,305.17,142.09,305.09,142,305.05Z" style="fill:#263238"></path><path d="M112.39,284.21s1.67-20.42,16.85-27c12.68-5.53,19.94,8.72,11,17.44C133,281.67,121.34,278.48,112.39,284.21Z" style="fill:#3B82F6"></path><path d="M137.41,261.12a64.06,64.06,0,0,0-6.75,3.2,49.72,49.72,0,0,0-5.25,3.48c.25-.51.47-1.06.73-1.56a26.13,26.13,0,0,1,1.29-2.31,21.39,21.39,0,0,1,3.34-4.23c.08-.08,0-.19-.12-.12a34.31,34.31,0,0,0-3.52,4.1,22.87,22.87,0,0,0-1.44,2.31,8.91,8.91,0,0,0-1,2.35c-.06.05-.12.08-.17.13a50.1,50.1,0,0,0-7.25,7.09c0-.2.08-.4.13-.58.29-1,.6-2,.92-3a25.18,25.18,0,0,1,2.75-6c.06-.09-.09-.17-.15-.08a47.4,47.4,0,0,0-3.18,5.81,23,23,0,0,0-1,3,13.67,13.67,0,0,0-.49,2.05c-.66.84-1.31,1.69-1.93,2.56-6.51,9.28-9.79,20.5-10.57,31.73a96.64,96.64,0,0,0-.17,10.07,62,62,0,0,0,.89,10.09c0,.21.37.15.37-.06-.08-2.95-.38-5.89-.44-8.84s0-5.92.28-8.87a82.35,82.35,0,0,1,3.32-17.38,62.18,62.18,0,0,1,7.72-16.33c.64-.13,1.27-.3,1.9-.47s1.52-.39,2.27-.6a21.87,21.87,0,0,0,4.23-1.55.08.08,0,1,0-.08-.14,13.89,13.89,0,0,1-4.3,1.48c-1.18.24-2.42.39-3.61.66,1.1-1.6,2.27-3.15,3.53-4.64a26.42,26.42,0,0,0,8.64-.64,35.91,35.91,0,0,0,4.42-1.38c1.52-.58,3-1.34,4.46-2,.12-.05,0-.22-.06-.16a25.3,25.3,0,0,1-8.76,2.87,55,55,0,0,1-8.19.68c1.08-1.24,2.19-2.45,3.38-3.58,4-3.8,8.72-7.29,14-9.11C137.56,261.25,137.51,261.08,137.41,261.12Z" style="fill:#263238"></path><path d="M125.05,261.19a22.92,22.92,0,0,0-1.86,2.72,15.23,15.23,0,0,0-1.34,3.17,0,0,0,0,0,.06,0c.51-1,.94-2,1.45-3a15.62,15.62,0,0,1,1.81-2.76C125.24,261.22,125.12,261.1,125.05,261.19Z" style="fill:#263238"></path><path d="M139.17,268a15.72,15.72,0,0,1-3.11,1.3,31.51,31.51,0,0,1-3.17.85,0,0,0,0,0,0,.09,15.87,15.87,0,0,0,3.28-.72,28.35,28.35,0,0,0,3.08-1.38C139.35,268.08,139.26,267.93,139.17,268Z" style="fill:#263238"></path><path d="M100.58,280.54c-.09.88-2.29-7.42-15.13-14.78-11.66-6.69-25.58-24.1-14.15-35.09C80.53,221.8,104.84,241.14,100.58,280.54Z" style="fill:#3B82F6"></path><path d="M109.42,328.11a227.79,227.79,0,0,0-2-25.82,116,116,0,0,0-5.42-23.1c-1-2.7-2-5.36-3.23-8a19.46,19.46,0,0,0,0-3.06c-.07-1.31-.19-2.61-.31-3.91s-.25-2.61-.4-3.91-.44-2.6-.49-3.9c0-.11-.19-.09-.16,0a28.52,28.52,0,0,1,.46,4.13c.1,1.26.17,2.52.21,3.79s0,2.52,0,3.79c0,.45,0,.94,0,1.42-1.21-2.55-2.5-5.06-3.9-7.51.87-5.32-.26-10.88-1.35-16.09,0-.1-.18-.05-.16.05a45.63,45.63,0,0,1,.85,8.25c0,2.19-.06,4.37-.06,6.56-.31-.53-.62-1.05-.94-1.57q-2.49-4.08-5.33-8a12.36,12.36,0,0,0-.12-3.79,30.6,30.6,0,0,0-.93-4.14,42.34,42.34,0,0,0-1.42-4c-.56-1.35-1.3-2.63-1.84-4,0-.11-.21,0-.15.07a19.27,19.27,0,0,1,1.61,4,37.19,37.19,0,0,1,1.05,4c.27,1.36.49,2.71.68,4.08.13.9.21,1.84.36,2.75a97.55,97.55,0,0,0-9-10.46c-.07-.08-.18,0-.11.12a118.69,118.69,0,0,1,13,17.75c.14.24.28.48.41.72-.7-.44-1.51-.8-2.18-1.17-1.24-.69-2.49-1.37-3.74-2l-3.64-2c-.62-.35-1.24-.71-1.87-1A15,15,0,0,1,77.08,251c-.09-.07-.2.08-.1.14,1.24.68,2.33,1.69,3.53,2.45s2.42,1.5,3.66,2.19c2.28,1.28,4.76,2.19,7,3.51,1.56,2.73,3,5.53,4.32,8.38-1.36-.88-2.76-1.7-4.17-2.5-.91-.51-1.82-1-2.74-1.49A13.34,13.34,0,0,1,86,262.1c-.08-.07-.19,0-.12.12a24.15,24.15,0,0,0,4.94,3.44c1.65,1,3.31,1.89,5,2.73q2.06,4.51,3.71,9.19c5.41,15.3,7.39,31.54,8.34,47.68.29,4.81.43,9.61.49,14.43s-.19,9.62-.18,14.42c0,.15.23.18.25,0,.58-4.26.68-8.6.87-12.9S109.52,332.48,109.42,328.11Z" style="fill:#263238"></path><path d="M86.09,258.84a63.79,63.79,0,0,1-6.82-3.53,73,73,0,0,1-6.48-4.11s-.07,0,0,.06A55.88,55.88,0,0,0,79,255.61,61.4,61.4,0,0,0,86,259C86.11,259,86.19,258.88,86.09,258.84Z" style="fill:#263238"></path><path d="M89.81,241.54c-.19-.75-.42-1.48-.67-2.21a.08.08,0,0,0,0-.08c-.16-.42-.33-.83-.5-1.24l-.06-.15c0-.08-.07-.15-.1-.23s-.05,0,0,0,.08.28.13.43a2,2,0,0,0,.06.23A60.25,60.25,0,0,1,90.57,247c0,.09.15.09.15,0A29,29,0,0,0,89.81,241.54Z" style="fill:#263238"></path><polygon points="122.99 331.21 122.07 342.07 119.27 375.19 89.22 375.19 86.42 342.07 85.5 331.21 122.99 331.21" style="fill:#37474f"></polygon><polygon points="122.99 331.21 122.07 342.07 86.42 342.07 85.5 331.21 122.99 331.21" style="fill:#263238"></polygon><rect x="82.56" y="326.86" width="43.38" height="10.42" style="fill:#37474f"></rect></g><g id="freepik--Floor--inject-2"><polygon points="50.72 375.19 131.79 374.95 212.86 374.86 375 374.69 537.14 374.86 618.21 374.95 699.28 375.19 618.21 375.44 537.14 375.52 375 375.69 212.86 375.52 131.79 375.43 50.72 375.19" style="fill:#263238"></polygon></g><g id="freepik--Device--inject-2"><rect x="138.36" y="84.08" width="471.59" height="315.46" style="fill:#ebebeb"></rect><rect x="141.79" y="87.93" width="464.73" height="307.76" style="fill:#263238"></rect><rect x="76.94" y="423.19" width="594.43" height="21.65" style="fill:#dbdbdb"></rect><polygon points="76.94 423.19 138.37 399.54 609.95 399.54 671.38 423.19 76.94 423.19" style="fill:#ebebeb"></polygon><polygon points="143.85 414.8 183.49 399.54 564.83 399.54 604.47 414.8 143.85 414.8" style="fill:#263238"></polygon><rect x="168.06" y="111.31" width="412.21" height="261" style="fill:#fff"></rect><rect x="167.71" y="111.31" width="412.56" height="10.04" style="fill:#455a64"></rect><path d="M175.69,116.33a2.49,2.49,0,1,1-2.49-2.49A2.49,2.49,0,0,1,175.69,116.33Z" style="fill:#c7c7c7"></path><path d="M185.86,116.33a2.49,2.49,0,1,1-2.49-2.49A2.48,2.48,0,0,1,185.86,116.33Z" style="fill:#fff"></path><path d="M196,116.33a2.49,2.49,0,1,1-2.49-2.49A2.48,2.48,0,0,1,196,116.33Z" style="fill:#3B82F6"></path><rect x="572.95" y="121.35" width="7.32" height="250.95" style="fill:#dbdbdb"></rect><path d="M576.6,208.35h0a1.89,1.89,0,0,1-1.89-1.89V124.71a1.89,1.89,0,0,1,1.89-1.89h0a1.89,1.89,0,0,1,1.89,1.89v81.75A1.89,1.89,0,0,1,576.6,208.35Z" style="fill:#a6a6a6"></path></g><g id="freepik--Password--inject-2"><rect x="227.42" y="186.44" width="295.16" height="44.74" style="fill:#fff"></rect><path d="M523.08,231.67H226.92V185.94H523.08Zm-295.16-1H522.08V186.94H227.92Z" style="fill:#dbdbdb"></path><path d="M253.48,198.56a24.25,24.25,0,0,1,1.17,5.12,40.57,40.57,0,0,1,0,10.25,24.42,24.42,0,0,1-1.18,5.12,23.81,23.81,0,0,1-1.18-5.12,41.2,41.2,0,0,1,0-10.25A24.92,24.92,0,0,1,253.48,198.56Z" style="fill:#37474f"></path><path d="M263.72,208.8A23.54,23.54,0,0,1,258.6,210a40,40,0,0,1-5.12.32,38.15,38.15,0,0,1-5.12-.32,23.76,23.76,0,0,1-5.13-1.18,25,25,0,0,1,5.13-1.18,39.88,39.88,0,0,1,5.12-.32,41.91,41.91,0,0,1,5.12.33A24.11,24.11,0,0,1,263.72,208.8Z" style="fill:#37474f"></path><path d="M260.72,201.56a24.43,24.43,0,0,1-2.79,4.45,39,39,0,0,1-3.39,3.85,40.16,40.16,0,0,1-3.85,3.4,24.51,24.51,0,0,1-4.46,2.79,24.51,24.51,0,0,1,2.79-4.46,40.16,40.16,0,0,1,3.4-3.85,41.47,41.47,0,0,1,3.85-3.39A24.77,24.77,0,0,1,260.72,201.56Z" style="fill:#37474f"></path><path d="M260.72,216.05a24.77,24.77,0,0,1-4.45-2.79,40.16,40.16,0,0,1-3.85-3.4A38.87,38.87,0,0,1,249,206a24.51,24.51,0,0,1-2.79-4.46,24,24,0,0,1,4.46,2.79,40.07,40.07,0,0,1,7.24,7.25A24.43,24.43,0,0,1,260.72,216.05Z" style="fill:#37474f"></path><path d="M293.42,198.56a24.25,24.25,0,0,1,1.17,5.12,42,42,0,0,1,.33,5.12,40.15,40.15,0,0,1-.32,5.13,25.07,25.07,0,0,1-1.18,5.12,23.81,23.81,0,0,1-1.18-5.12,38.41,38.41,0,0,1-.32-5.13,40.11,40.11,0,0,1,.32-5.12A24.28,24.28,0,0,1,293.42,198.56Z" style="fill:#37474f"></path><path d="M303.66,208.8a23.68,23.68,0,0,1-5.12,1.18,40.11,40.11,0,0,1-5.12.32,38.41,38.41,0,0,1-5.13-.32,23.81,23.81,0,0,1-5.12-1.18,25.07,25.07,0,0,1,5.12-1.18,40.15,40.15,0,0,1,5.13-.32,42,42,0,0,1,5.12.33A24.25,24.25,0,0,1,303.66,208.8Z" style="fill:#37474f"></path><path d="M300.66,201.56a24.43,24.43,0,0,1-2.79,4.45,39,39,0,0,1-3.39,3.85,40.16,40.16,0,0,1-3.85,3.4,24.51,24.51,0,0,1-4.46,2.79,24.51,24.51,0,0,1,2.79-4.46,40.16,40.16,0,0,1,3.4-3.85,39,39,0,0,1,3.85-3.39A24.43,24.43,0,0,1,300.66,201.56Z" style="fill:#37474f"></path><path d="M300.66,216.05a24.43,24.43,0,0,1-4.45-2.79,37.87,37.87,0,0,1-3.85-3.4A38.87,38.87,0,0,1,289,206a24.51,24.51,0,0,1-2.79-4.46,24,24,0,0,1,4.46,2.79,40.07,40.07,0,0,1,7.24,7.25A24.43,24.43,0,0,1,300.66,216.05Z" style="fill:#37474f"></path><path d="M333.35,198.56a23.68,23.68,0,0,1,1.18,5.12,40.11,40.11,0,0,1,.32,5.12,38.41,38.41,0,0,1-.32,5.13,23.81,23.81,0,0,1-1.18,5.12,24.39,24.39,0,0,1-1.17-5.12,40.16,40.16,0,0,1-.33-5.13,42,42,0,0,1,.33-5.12A24.25,24.25,0,0,1,333.35,198.56Z" style="fill:#37474f"></path><path d="M343.6,208.8a23.81,23.81,0,0,1-5.12,1.18,40.15,40.15,0,0,1-5.13.32,38.36,38.36,0,0,1-5.12-.32,23.68,23.68,0,0,1-5.12-1.18,24.92,24.92,0,0,1,5.12-1.18,40.11,40.11,0,0,1,5.12-.32,42.07,42.07,0,0,1,5.13.33A24.39,24.39,0,0,1,343.6,208.8Z" style="fill:#37474f"></path><path d="M340.6,201.56a24.43,24.43,0,0,1-2.79,4.45,39,39,0,0,1-3.39,3.85,40.16,40.16,0,0,1-3.85,3.4,24.51,24.51,0,0,1-4.46,2.79,24,24,0,0,1,2.79-4.46,41.47,41.47,0,0,1,3.39-3.85,40.34,40.34,0,0,1,3.86-3.39A24.43,24.43,0,0,1,340.6,201.56Z" style="fill:#37474f"></path><path d="M340.6,216.05a24.43,24.43,0,0,1-4.45-2.79,39.1,39.1,0,0,1-3.86-3.4A40.1,40.1,0,0,1,328.9,206a24,24,0,0,1-2.79-4.46,24,24,0,0,1,4.46,2.79,40.07,40.07,0,0,1,7.24,7.25A24.43,24.43,0,0,1,340.6,216.05Z" style="fill:#37474f"></path><path d="M373.29,198.56a24.28,24.28,0,0,1,1.18,5.12,41.2,41.2,0,0,1,0,10.25,23.81,23.81,0,0,1-1.18,5.12,24.42,24.42,0,0,1-1.18-5.12,40.15,40.15,0,0,1-.32-5.13,42,42,0,0,1,.33-5.12A24.25,24.25,0,0,1,373.29,198.56Z" style="fill:#37474f"></path><path d="M383.54,208.8a23.81,23.81,0,0,1-5.12,1.18,40.15,40.15,0,0,1-5.13.32,38.36,38.36,0,0,1-5.12-.32,23.68,23.68,0,0,1-5.12-1.18,24.92,24.92,0,0,1,5.12-1.18,40.11,40.11,0,0,1,5.12-.32,42.07,42.07,0,0,1,5.13.33A24.39,24.39,0,0,1,383.54,208.8Z" style="fill:#37474f"></path><path d="M380.54,201.56a24.43,24.43,0,0,1-2.79,4.45,39.13,39.13,0,0,1-3.4,3.85,37.87,37.87,0,0,1-3.85,3.4,24.43,24.43,0,0,1-4.45,2.79,23.46,23.46,0,0,1,2.79-4.46,40.06,40.06,0,0,1,3.39-3.85,41.47,41.47,0,0,1,3.85-3.39A24.86,24.86,0,0,1,380.54,201.56Z" style="fill:#37474f"></path><path d="M380.54,216.05a24.86,24.86,0,0,1-4.46-2.79,40.16,40.16,0,0,1-3.85-3.4,38.77,38.77,0,0,1-3.39-3.84,23.46,23.46,0,0,1-2.79-4.46,23.89,23.89,0,0,1,4.45,2.79,37.78,37.78,0,0,1,3.85,3.39,40.44,40.44,0,0,1,3.4,3.86A24.43,24.43,0,0,1,380.54,216.05Z" style="fill:#37474f"></path><path d="M413.23,198.56a24.92,24.92,0,0,1,1.18,5.12,41.2,41.2,0,0,1,0,10.25,23.81,23.81,0,0,1-1.18,5.12,24.42,24.42,0,0,1-1.18-5.12,40.57,40.57,0,0,1,0-10.25A24.25,24.25,0,0,1,413.23,198.56Z" style="fill:#37474f"></path><path d="M423.48,208.8a23.76,23.76,0,0,1-5.13,1.18,39.88,39.88,0,0,1-5.12.32,38.26,38.26,0,0,1-5.12-.32A23.54,23.54,0,0,1,403,208.8a24.77,24.77,0,0,1,5.12-1.18,40,40,0,0,1,5.12-.32,41.78,41.78,0,0,1,5.12.33A24.34,24.34,0,0,1,423.48,208.8Z" style="fill:#37474f"></path><path d="M420.48,201.56a23.93,23.93,0,0,1-2.8,4.45,40.95,40.95,0,0,1-7.24,7.25,24.43,24.43,0,0,1-4.45,2.79,23.46,23.46,0,0,1,2.79-4.46,40.06,40.06,0,0,1,3.39-3.85,41.47,41.47,0,0,1,3.85-3.39A24.51,24.51,0,0,1,420.48,201.56Z" style="fill:#37474f"></path><path d="M420.48,216.05a24.51,24.51,0,0,1-4.46-2.79,40.16,40.16,0,0,1-3.85-3.4,38.77,38.77,0,0,1-3.39-3.84,23.46,23.46,0,0,1-2.79-4.46,23.89,23.89,0,0,1,4.45,2.79,37.78,37.78,0,0,1,3.85,3.39,39,39,0,0,1,3.39,3.86A23.93,23.93,0,0,1,420.48,216.05Z" style="fill:#37474f"></path><path d="M453.17,198.56a24.25,24.25,0,0,1,1.17,5.12,40.57,40.57,0,0,1,0,10.25,24.42,24.42,0,0,1-1.18,5.12,23.81,23.81,0,0,1-1.18-5.12,41.2,41.2,0,0,1,0-10.25A24.92,24.92,0,0,1,453.17,198.56Z" style="fill:#37474f"></path><path d="M463.41,208.8a23.54,23.54,0,0,1-5.12,1.18,40,40,0,0,1-5.12.32,38.15,38.15,0,0,1-5.12-.32,23.76,23.76,0,0,1-5.13-1.18,25,25,0,0,1,5.13-1.18,39.88,39.88,0,0,1,5.12-.32,41.91,41.91,0,0,1,5.12.33A24.11,24.11,0,0,1,463.41,208.8Z" style="fill:#37474f"></path><path d="M460.41,201.56a23.38,23.38,0,0,1-2.79,4.45,37.78,37.78,0,0,1-3.39,3.85,40.16,40.16,0,0,1-3.85,3.4,24.77,24.77,0,0,1-4.45,2.79,23.94,23.94,0,0,1,2.78-4.46,40.95,40.95,0,0,1,7.25-7.24A24.77,24.77,0,0,1,460.41,201.56Z" style="fill:#37474f"></path><path d="M460.41,216.05a24.77,24.77,0,0,1-4.45-2.79,41.86,41.86,0,0,1-7.25-7.24,23.94,23.94,0,0,1-2.78-4.46,24.23,24.23,0,0,1,4.45,2.79,40.06,40.06,0,0,1,3.85,3.39,39,39,0,0,1,3.39,3.86A23.38,23.38,0,0,1,460.41,216.05Z" style="fill:#37474f"></path></g><g id="freepik--Padlock--inject-2"><path d="M425.47,199.76v54.46H410.08V199.76c0-20.71-15.73-37.55-35.08-37.55s-35.08,16.84-35.08,37.55v54.46H324.53V199.76C324.53,170.1,347.17,146,375,146S425.47,170.1,425.47,199.76Z" style="fill:#455a64"></path><polygon points="324.53 213.92 339.92 214.54 339.92 254.22 324.53 254.22 324.53 213.92" style="fill:#263238"></polygon><polygon points="425.47 218.03 425.47 254.22 410.08 254.22 410.08 217.4 425.47 218.03" style="fill:#263238"></polygon><rect x="304.81" y="223.21" width="140.39" height="127.37" style="fill:#3B82F6"></rect><rect x="375" y="223.21" width="70.19" height="127.37" style="opacity:0.1"></rect><path d="M380.94,291.56l5.87,27.87H361.87l5.88-27.87a12.47,12.47,0,1,1,13.19,0Z" style="fill:#263238"></path></g><g id="freepik--Shield--inject-2"><path d="M334.22,291.51s-7.34,58.76-19.4,72c-14.48,15.86-25,13.54-30.84,21.72h0c-5.84-8.19-16.35-5.86-30.85-21.73-12.06-13.23-19.39-72-19.39-72C265.52,276.08,284,258.79,284,258.79h0C284.55,259.33,302.93,276.33,334.22,291.51Z" style="fill:#ebebeb"></path><path d="M284,258.8V385.22h0c-5.84-8.19-16.35-5.86-30.85-21.73-12.06-13.23-19.39-72-19.39-72C265.52,276.08,284,258.79,284,258.79Z" style="fill:#dbdbdb"></path><path d="M326.43,296.25s-6.2,49.63-16.39,60.81c-12.25,13.42-21.13,11.45-26.07,18.36-4.94-6.91-13.82-4.94-26.06-18.36-10.19-11.18-16.38-60.81-16.38-60.81,26.85-13,42.44-27.65,42.44-27.65S299.58,283.21,326.43,296.25Z" style="fill:#dbdbdb"></path><path d="M241.54,296.25s6.2,49.63,16.39,60.81C270.16,370.47,279,368.51,284,375.4V268.62C283.51,269.06,268,283.41,241.54,296.25Z" style="fill:#c7c7c7"></path><circle cx="283.98" cy="322.01" r="19.68" transform="translate(-144.52 295.12) rotate(-45)" style="fill:#3B82F6"></circle><polygon points="281.74 334.8 272.97 325.68 276.22 322.55 281.05 327.58 291.47 311.6 295.25 314.06 281.74 334.8" style="fill:#fff"></polygon></g><g id="freepik--Key--inject-2"><path d="M283.37,324.46h12.18a0,0,0,0,1,0,0V466.74a4.9,4.9,0,0,1-4.9,4.9h-2.38a4.9,4.9,0,0,1-4.9-4.9V324.46A0,0,0,0,1,283.37,324.46Z" transform="translate(-156.67 605.88) rotate(-78.95)" style="fill:#3B82F6"></path><rect x="219.57" y="377" width="12.19" height="17.18" transform="translate(-196.02 533.19) rotate(-78.95)" style="opacity:0.1"></rect><path d="M165,362.74,160.89,384a27.65,27.65,0,1,0,54.28,10.59l4.14-21.21A27.65,27.65,0,0,0,165,362.74Zm45.59,5.31c-1.23,6.31-6.74,10.86-13.55,11.95,5.9,3.59,9.3,9.86,8.06,16.17-1.64,8.44-10.95,13.74-20.78,11.82s-16.44-10.33-14.79-18.76c1.23-6.31,6.74-10.86,13.56-12-5.91-3.57-9.3-9.86-8.07-16.17,1.65-8.45,10.94-13.73,20.76-11.81S212.28,359.61,210.63,368.05Z" style="fill:#3B82F6"></path><rect x="206.15" y="381.67" width="27.69" height="5.62" rx="2.26" transform="translate(-199.52 526.73) rotate(-78.95)" style="fill:#3B82F6"></rect><rect x="211.66" y="382.75" width="27.69" height="5.62" rx="2.26" transform="translate(-196.12 533.01) rotate(-78.95)" style="fill:#3B82F6"></rect><polygon points="324.69 393.62 328.85 394.43 331.2 382.35 334.76 383.04 333.53 389.34 337.68 390.15 338.91 383.85 342.06 384.46 340.11 394.42 344.27 395.24 346.22 385.28 350.68 386.15 348.09 399.45 352.25 400.26 354.85 386.96 359.07 387.79 355.75 404.79 318.59 397.53 321.9 380.53 327.04 381.53 324.69 393.62" style="fill:#3B82F6"></polygon></g></svg>